<svg width="478" height="58" viewBox="0 0 478 58" fill="none" xmlns="http://www.w3.org/2000/svg">
<path fill-rule="evenodd" clip-rule="evenodd" d="M52.2232 3.0476L4.56625 13.6352C2.47793 14.0992 2.47791 17.076 4.56621 17.54L52.2232 28.1286C52.5089 28.192 52.805 28.192 53.0907 28.1286L100.748 17.54C102.836 17.076 102.836 14.0992 100.748 13.6352L53.0907 3.0476C52.805 2.98413 52.5089 2.98413 52.2232 3.0476ZM3.91562 10.7066C-1.30516 11.8665 -1.30523 19.3086 3.91553 20.4686L6.86761 21.1245V27.8758C4.55911 28.5287 2.86761 30.6512 2.86761 33.1688C2.86761 36.2063 5.33005 38.6688 8.36762 38.6688C11.4052 38.6688 13.8676 36.2063 13.8676 33.1688C13.8676 30.6512 12.1761 28.5287 9.86762 27.8758V21.791L51.5725 31.0571C52.2868 31.2158 53.0271 31.2158 53.7414 31.0571L101.398 20.4686C106.619 19.3086 106.619 11.8665 101.398 10.7066L53.7413 0.119004C53.0271 -0.0396681 52.2868 -0.0396679 51.5726 0.119004L3.91562 10.7066ZM5.86761 33.1688C5.86761 31.788 6.9869 30.6688 8.36762 30.6688C9.74833 30.6688 10.8676 31.788 10.8676 33.1688C10.8676 34.5495 9.74833 35.6688 8.36762 35.6688C6.9869 35.6688 5.86761 34.5495 5.86761 33.1688ZM75.8676 47.1743V32.4274C75.8676 31.1446 74.6771 30.1935 73.426 30.4768L54.1342 34.8447C52.9712 35.108 51.764 35.108 50.601 34.8447L31.3093 30.4768C30.0582 30.1935 28.8676 31.1446 28.8676 32.4274V47.1743C28.8676 48.1087 29.5146 48.9186 30.426 49.1249L51.926 53.9928C52.2167 54.0587 52.5185 54.0587 52.8093 53.9928L74.3093 49.1249C75.2206 48.9186 75.8676 48.1087 75.8676 47.1743ZM31.9717 27.5508C28.844 26.8427 25.8676 29.2205 25.8676 32.4274V47.1743C25.8676 49.5103 27.4851 51.535 29.7635 52.0508L51.2635 56.9188C51.9904 57.0833 52.7449 57.0833 53.4717 56.9188L74.9717 52.0508C77.2501 51.535 78.8676 49.5103 78.8676 47.1743V32.4274C78.8676 29.2205 75.8913 26.8427 72.7635 27.5508L53.4717 31.9188C52.7449 32.0833 51.9904 32.0833 51.2635 31.9188L31.9717 27.5508ZM145.164 39.75C144.531 41.2167 143.647 42.4333 142.514 43.4C141.381 44.4 140.047 45.15 138.514 45.65C136.981 46.15 135.314 46.4 133.514 46.4C131.714 46.4 130.047 46.15 128.514 45.65C126.981 45.15 125.647 44.4 124.514 43.4C123.381 42.4333 122.497 41.2167 121.864 39.75C121.231 38.2833 120.914 36.6 120.914 34.7V14.95H117.064V11H129.164V14.95H125.064V34.55C125.064 35.8167 125.264 36.95 125.664 37.95C126.097 38.9167 126.697 39.7333 127.464 40.4C128.197 41.0667 129.081 41.5833 130.114 41.95C131.147 42.2833 132.281 42.45 133.514 42.45C134.747 42.45 135.881 42.2833 136.914 41.95C137.947 41.5833 138.847 41.0667 139.614 40.4C140.347 39.7333 140.931 38.9167 141.364 37.95C141.797 36.95 142.014 35.8167 142.014 34.55V14.95H137.914V11H150.014V14.95H146.164V34.7C146.164 36.6 145.831 38.2833 145.164 39.75ZM192.788 14.95H188.439V47.6L162.839 20.4L161.889 19.1L162.038 20.7V42.05H165.639V46H153.538V42.05H157.889V14.95H153.538V11H159.339L183.488 37.15L184.439 38.45L184.288 36.85V14.95H180.688V11H192.788V14.95ZM208.412 42.05V46H196.312V42.05H200.262V14.95H196.312V11H208.412V14.95H204.412V42.05H208.412ZM248.888 14.95H243.938C241.638 20.45 239.321 25.9 236.988 31.3C234.688 36.6667 232.388 42.1 230.088 47.6C227.788 42.1 225.471 36.6667 223.138 31.3C220.838 25.9 218.538 20.45 216.238 14.95H211.888V11H223.988V14.95H220.388C221.955 18.5833 223.488 22.2167 224.988 25.85C226.521 29.4833 228.071 33.1167 229.638 36.75L230.088 38.4L230.538 36.75C232.105 33.1167 233.638 29.5 235.138 25.9C236.671 22.2667 238.205 18.6167 239.738 14.95H236.788V11H248.888V14.95ZM277.417 38.3V46H252.367V42.05H255.167V14.95H252.367V11H276.717V18.7H272.767V14.95H259.317V26.4H274.767V30.35H259.317V42.05H273.467V38.3H277.417ZM293.031 42.05V46H280.931V42.05H283.181V14.95H280.931V11H291.431C292.564 11 293.814 11.1833 295.181 11.55C296.581 11.8833 297.881 12.4333 299.081 13.2C300.281 13.9667 301.281 14.95 302.081 16.15C302.881 17.35 303.281 18.8 303.281 20.5C303.281 23 302.648 25.0833 301.381 26.75C300.148 28.4167 298.331 29.5167 295.931 30.05L301.531 42.05H306.231V46H298.931L291.581 30.35C291.114 30.35 290.748 30.3667 290.481 30.4H289.431H287.331V42.05H293.031ZM291.731 14.95H287.331V26.4H291.681C293.148 26.4 294.348 26.2167 295.281 25.85C296.248 25.45 297.014 24.9667 297.581 24.4C298.148 23.8333 298.548 23.2 298.781 22.5C299.014 21.8 299.131 21.1333 299.131 20.5C299.131 19.7667 298.931 19.0667 298.531 18.4C298.164 17.7333 297.664 17.1333 297.031 16.6C296.364 16.1 295.564 15.7 294.631 15.4C293.731 15.1 292.764 14.95 291.731 14.95ZM330.09 40.7C329.556 41.9 328.823 42.9333 327.89 43.8C326.923 44.6333 325.806 45.2833 324.54 45.75C323.273 46.1833 321.94 46.4 320.54 46.4C319.273 46.4 318.04 46.2667 316.84 46C315.64 45.7 314.54 45.3167 313.54 44.85C312.54 44.3833 311.64 43.85 310.84 43.25C310.073 42.65 309.473 42.0167 309.04 41.35V35.55H312.99V40C313.856 40.6667 314.89 41.25 316.09 41.75C317.29 42.2167 318.64 42.45 320.14 42.45C321.006 42.45 321.84 42.3333 322.64 42.1C323.44 41.8333 324.156 41.4667 324.79 41C325.39 40.5 325.873 39.8833 326.24 39.15C326.606 38.4167 326.79 37.5667 326.79 36.6C326.79 36 326.74 35.4 326.64 34.8C326.573 34.2 326.406 33.6833 326.14 33.25C325.706 32.55 325.19 32 324.59 31.6C324.023 31.1667 323.356 30.7667 322.59 30.4C321.39 29.9 320.09 29.4667 318.69 29.1C317.29 28.7333 315.99 28.2333 314.79 27.6C313.556 26.9667 312.523 26.0833 311.69 24.95C310.89 23.8167 310.473 22.2167 310.44 20.15C310.406 19.05 310.556 17.95 310.89 16.85C311.223 15.75 311.773 14.75 312.54 13.85C313.306 12.95 314.323 12.2167 315.59 11.65C316.856 11.0833 318.406 10.8 320.24 10.8C320.84 10.8 321.49 10.8333 322.19 10.9C322.89 10.9667 323.623 11.1 324.39 11.3C325.156 11.5 325.94 11.8 326.74 12.2C327.573 12.6 328.39 13.1333 329.19 13.8V18.7H325.24V15.75C324.606 15.4833 323.873 15.25 323.04 15.05C322.206 14.85 321.29 14.75 320.29 14.75C319.29 14.75 318.423 14.9167 317.69 15.25C316.956 15.55 316.356 15.9667 315.89 16.5C315.456 17 315.123 17.5833 314.89 18.25C314.69 18.8833 314.59 19.5667 314.59 20.3C314.59 21.3 314.823 22.1167 315.29 22.75C315.756 23.35 316.373 23.8667 317.14 24.3C318.34 24.9333 319.773 25.5 321.44 26C323.106 26.4667 324.706 27.0667 326.24 27.8C327.64 28.4667 328.773 29.5 329.64 30.9C330.506 32.3 330.94 34.2167 330.94 36.65C330.94 38.15 330.656 39.5 330.09 40.7ZM345.717 42.05V46H333.617V42.05H337.567V14.95H333.617V11H345.717V14.95H341.717V42.05H345.717ZM368.793 42.05V46H356.693V42.05H360.993V14.95H353.143V18.7H349.193V11H376.843V18.7H372.893V14.95H365.143V42.05H368.793ZM392.445 42.05V46H380.345V42.05H384.295V14.95H380.345V11H392.445V14.95H388.445V42.05H392.445ZM424.021 39.75C423.388 41.2167 422.505 42.4333 421.371 43.4C420.238 44.4 418.905 45.15 417.371 45.65C415.838 46.15 414.171 46.4 412.371 46.4C410.571 46.4 408.905 46.15 407.371 45.65C405.838 45.15 404.505 44.4 403.371 43.4C402.238 42.4333 401.355 41.2167 400.721 39.75C400.088 38.2833 399.771 36.6 399.771 34.7V14.95H395.921V11H408.021V14.95H403.921V34.55C403.921 35.8167 404.121 36.95 404.521 37.95C404.955 38.9167 405.555 39.7333 406.321 40.4C407.055 41.0667 407.938 41.5833 408.971 41.95C410.005 42.2833 411.138 42.45 412.371 42.45C413.605 42.45 414.738 42.2833 415.771 41.95C416.805 41.5833 417.705 41.0667 418.471 40.4C419.205 39.7333 419.788 38.9167 420.221 37.95C420.655 36.95 420.871 35.8167 420.871 34.55V14.95H416.771V11H428.871V14.95H425.021V34.7C425.021 36.6 424.688 38.2833 424.021 39.75ZM444.496 42.05V46H432.396V42.05H436.746V14.95H432.396V11H437.996C440.863 14.7 443.696 18.4 446.496 22.1C449.329 25.7667 452.179 29.45 455.046 33.15C457.913 29.45 460.746 25.7667 463.546 22.1C466.379 18.4 469.229 14.7 472.096 11H477.696V14.95H473.346V42.05H477.696V46H465.596V42.05H469.196V22.5C469.229 22.2333 469.246 21.9667 469.246 21.7L469.346 20.9C469.079 21.2667 468.813 21.65 468.546 22.05C468.279 22.45 468.013 22.8333 467.746 23.2L455.046 39.75L441.796 22.4C441.563 22.1 441.363 21.85 441.196 21.65C441.063 21.45 440.913 21.2 440.746 20.9L440.846 21.7C440.879 21.9667 440.896 22.2333 440.896 22.5V42.05H444.496Z" fill="#6B9080"/>
</svg>
