<svg width="481" height="58" viewBox="0 0 481 58" fill="none" xmlns="http://www.w3.org/2000/svg">
<path d="M4.24094 12.1709L51.8979 1.5833C52.3978 1.47223 52.9161 1.47223 53.416 1.5833L101.073 12.1709C104.728 12.9828 104.728 18.1923 101.073 19.0043L53.4161 29.5929C52.9161 29.7039 52.3978 29.7039 51.8978 29.5929L4.24087 19.0043C0.586343 18.1923 0.586387 12.9828 4.24094 12.1709Z" stroke="#F6FFF8" stroke-width="3"/>
<path d="M77.3676 32.4274V47.1743C77.3676 48.8095 76.2354 50.2268 74.6405 50.5879L53.1405 55.4558C52.6317 55.571 52.1035 55.571 51.5947 55.4558L30.0947 50.5879C28.4999 50.2268 27.3676 48.8095 27.3676 47.1743V32.4274C27.3676 30.1825 29.4511 28.5181 31.6405 29.0138L50.9322 33.3817C51.8772 33.5957 52.858 33.5957 53.803 33.3817L73.0947 29.0138C75.2842 28.5181 77.3676 30.1825 77.3676 32.4274Z" stroke="#F6FFF8" stroke-width="3"/>
<line x1="8.36761" y1="20.1688" x2="8.36761" y2="29.1688" stroke="#F6FFF8" stroke-width="3" stroke-linecap="round"/>
<circle cx="8.36761" cy="33.1688" r="4" stroke="#F6FFF8" stroke-width="3"/>
<path d="M142.514 43.4C143.647 42.4333 144.531 41.2167 145.164 39.75C145.831 38.2833 146.164 36.6 146.164 34.7V14.95H150.014V11H137.914V14.95H142.014V34.55C142.014 35.8167 141.797 36.95 141.364 37.95C140.931 38.9167 140.347 39.7333 139.614 40.4C138.847 41.0667 137.947 41.5833 136.914 41.95C135.881 42.2833 134.747 42.45 133.514 42.45C132.281 42.45 131.147 42.2833 130.114 41.95C129.081 41.5833 128.197 41.0667 127.464 40.4C126.697 39.7333 126.097 38.9167 125.664 37.95C125.264 36.95 125.064 35.8167 125.064 34.55V14.95H129.164V11H117.064V14.95H120.914V34.7C120.914 36.6 121.231 38.2833 121.864 39.75C122.497 41.2167 123.381 42.4333 124.514 43.4C125.647 44.4 126.981 45.15 128.514 45.65C130.047 46.15 131.714 46.4 133.514 46.4C135.314 46.4 136.981 46.15 138.514 45.65C140.047 45.15 141.381 44.4 142.514 43.4ZM188.438 14.95H192.789V11H180.688V14.95H184.288V36.85L184.439 38.45L183.488 37.15L159.338 11H153.538V14.95H157.888V42.05H153.538V46H165.638V42.05H162.038V20.7L161.888 19.1L162.838 20.4L188.438 47.6V14.95ZM208.412 46V42.05H204.412V14.95H208.412V11H196.312V14.95H200.262V42.05H196.312V46H208.412ZM243.938 14.95H248.888V11H236.788V14.95H239.738C238.205 18.6167 236.671 22.2667 235.138 25.9C233.638 29.5 232.105 33.1167 230.538 36.75L230.088 38.4L229.638 36.75C228.071 33.1167 226.521 29.4833 224.988 25.85C223.488 22.2167 221.955 18.5833 220.388 14.95H223.988V11H211.888V14.95H216.238C218.538 20.45 220.838 25.9 223.138 31.3C225.471 36.6667 227.788 42.1 230.088 47.6C232.388 42.1 234.688 36.6667 236.988 31.3C239.321 25.9 241.638 20.45 243.938 14.95ZM277.417 46V38.3H273.467V42.05H259.317V30.35H274.767V26.4H259.317V14.95H272.767V18.7H276.717V11H252.367V14.95H255.167V42.05H252.367V46H277.417ZM293.031 46V42.05H287.331V30.4H289.431C289.898 30.4 290.248 30.4 290.481 30.4C290.748 30.3667 291.114 30.35 291.581 30.35L298.931 46H306.231V42.05H301.531L295.931 30.05C298.331 29.5167 300.148 28.4167 301.381 26.75C302.648 25.0833 303.281 23 303.281 20.5C303.281 18.8 302.881 17.35 302.081 16.15C301.281 14.95 300.281 13.9667 299.081 13.2C297.881 12.4333 296.581 11.8833 295.181 11.55C293.814 11.1833 292.564 11 291.431 11H280.931V14.95H283.181V42.05H280.931V46H293.031ZM287.331 14.95H291.731C292.764 14.95 293.731 15.1 294.631 15.4C295.564 15.7 296.364 16.1 297.031 16.6C297.664 17.1333 298.164 17.7333 298.531 18.4C298.931 19.0667 299.131 19.7667 299.131 20.5C299.131 21.1333 299.014 21.8 298.781 22.5C298.548 23.2 298.148 23.8333 297.581 24.4C297.014 24.9667 296.248 25.45 295.281 25.85C294.348 26.2167 293.148 26.4 291.681 26.4H287.331V14.95ZM327.89 43.8C328.823 42.9333 329.556 41.9 330.09 40.7C330.656 39.5 330.94 38.15 330.94 36.65C330.94 34.2167 330.506 32.3 329.64 30.9C328.773 29.5 327.64 28.4667 326.24 27.8C324.706 27.0667 323.106 26.4667 321.44 26C319.773 25.5 318.34 24.9333 317.14 24.3C316.373 23.8667 315.756 23.35 315.29 22.75C314.823 22.1167 314.59 21.3 314.59 20.3C314.59 19.5667 314.69 18.8833 314.89 18.25C315.123 17.5833 315.456 17 315.89 16.5C316.356 15.9667 316.956 15.55 317.69 15.25C318.423 14.9167 319.29 14.75 320.29 14.75C321.29 14.75 322.206 14.85 323.04 15.05C323.873 15.25 324.606 15.4833 325.24 15.75V18.7H329.19V13.8C328.39 13.1333 327.573 12.6 326.74 12.2C325.94 11.8 325.156 11.5 324.39 11.3C323.623 11.1 322.89 10.9667 322.19 10.9C321.49 10.8333 320.84 10.8 320.24 10.8C318.406 10.8 316.856 11.0833 315.59 11.65C314.323 12.2167 313.306 12.95 312.54 13.85C311.773 14.75 311.223 15.75 310.89 16.85C310.556 17.95 310.406 19.05 310.44 20.15C310.473 22.2167 310.89 23.8167 311.69 24.95C312.523 26.0833 313.556 26.9667 314.79 27.6C315.99 28.2333 317.29 28.7333 318.69 29.1C320.09 29.4667 321.39 29.9 322.59 30.4C323.356 30.7667 324.023 31.1667 324.59 31.6C325.19 32 325.706 32.55 326.14 33.25C326.406 33.6833 326.573 34.2 326.64 34.8C326.74 35.4 326.79 36 326.79 36.6C326.79 37.5667 326.606 38.4167 326.24 39.15C325.873 39.8833 325.39 40.5 324.79 41C324.156 41.4667 323.44 41.8333 322.64 42.1C321.84 42.3333 321.006 42.45 320.14 42.45C318.64 42.45 317.29 42.2167 316.09 41.75C314.89 41.25 313.856 40.6667 312.99 40V35.55H309.04V41.35C309.473 42.0167 310.073 42.65 310.84 43.25C311.64 43.85 312.54 44.3833 313.54 44.85C314.54 45.3167 315.64 45.7 316.84 46C318.04 46.2667 319.273 46.4 320.54 46.4C321.94 46.4 323.273 46.1833 324.54 45.75C325.806 45.2833 326.923 44.6333 327.89 43.8ZM345.717 46V42.05H341.717V14.95H345.717V11H333.617V14.95H337.567V42.05H333.617V46H345.717ZM368.793 46V42.05H365.143V14.95H372.893V18.7H376.843V11H349.193V18.7H353.143V14.95H360.993V42.05H356.693V46H368.793ZM392.445 46V42.05H388.445V14.95H392.445V11H380.345V14.95H384.295V42.05H380.345V46H392.445ZM421.371 43.4C422.505 42.4333 423.388 41.2167 424.021 39.75C424.688 38.2833 425.021 36.6 425.021 34.7V14.95H428.871V11H416.771V14.95H420.871V34.55C420.871 35.8167 420.655 36.95 420.221 37.95C419.788 38.9167 419.205 39.7333 418.471 40.4C417.705 41.0667 416.805 41.5833 415.771 41.95C414.738 42.2833 413.605 42.45 412.371 42.45C411.138 42.45 410.005 42.2833 408.971 41.95C407.938 41.5833 407.055 41.0667 406.321 40.4C405.555 39.7333 404.955 38.9167 404.521 37.95C404.121 36.95 403.921 35.8167 403.921 34.55V14.95H408.021V11H395.921V14.95H399.771V34.7C399.771 36.6 400.088 38.2833 400.721 39.75C401.355 41.2167 402.238 42.4333 403.371 43.4C404.505 44.4 405.838 45.15 407.371 45.65C408.905 46.15 410.571 46.4 412.371 46.4C414.171 46.4 415.838 46.15 417.371 45.65C418.905 45.15 420.238 44.4 421.371 43.4ZM444.496 46V42.05H440.896V22.5C440.896 22.2333 440.879 21.9667 440.846 21.7C440.813 21.4333 440.779 21.1667 440.746 20.9C440.913 21.2 441.063 21.45 441.196 21.65C441.363 21.85 441.563 22.1 441.796 22.4L455.046 39.75L467.746 23.2C468.013 22.8333 468.279 22.45 468.546 22.05C468.813 21.65 469.079 21.2667 469.346 20.9C469.313 21.1667 469.279 21.4333 469.246 21.7C469.246 21.9667 469.229 22.2333 469.196 22.5V42.05H465.596V46H477.696V42.05H473.346V14.95H477.696V11H472.096C469.229 14.7 466.379 18.4 463.546 22.1C460.746 25.7667 457.913 29.45 455.046 33.15C452.179 29.45 449.329 25.7667 446.496 22.1C443.696 18.4 440.863 14.7 437.996 11H432.396V14.95H436.746V42.05H432.396V46H444.496Z" fill="#F6FFF8"/>
</svg>
